# xmcd
#
# Track frame offsets:
#	150
#	3583
#	11202
#	15887
#	20279
#	30691
#	33038
#	38729
#	43015
#	60661
#	69536
#	95453
#	111426
#	151227
#	191881
#	214172
#
# Disc length: 2894 seconds
#
# Revision: 1
# Processed by: cddbd v1.5.1PL2 Copyright (c) Steve Scherf et al.
# Submitted via: EasyCDDAExtractor 7.1.0.1
#
DISCID=c90b4c10
DTITLE=Folkways - St John's Island, South Carolina: Its people and Songs
DYEAR=1973
DGENRE=Blues
TTITLE0=Old Lady Comes From Booster
TTITLE1=Cheerio
TTITLE2=Mama Lama
TTITLE3=Who are the Greatest?
TTITLE4=Dr. Knickerbocker/Tic Tac Medley
TTITLE5=Mr. Postman Died
TTITLE6=Miss Mary Mack/I want to go to Mexico
TTITLE7=Shake it if you can
TTITLE8=Have you ever been Mistreated?
TTITLE9=That's all right
TTITLE10=Motherless Child
TTITLE11=He Rose from the Dead
TTITLE12=Easter Morning Sermon 1970
TTITLE13=Jesus knows all about My Troubles
TTITLE14=Give me that Old Time Religion
TTITLE15=Liner Notes
EXTD=
EXTT0=
EXTT1=
EXTT2=
EXTT3=
EXTT4=
EXTT5=
EXTT6=
EXTT7=
EXTT8=
EXTT9=
EXTT10=
EXTT11=
EXTT12=
EXTT13=
EXTT14=
EXTT15=
PLAYORDER=
